<svg xmlns="http://www.w3.org/2000/svg" xmlns:xlink="http://www.w3.org/1999/xlink" width="220" zoomAndPan="magnify" viewBox="0 0 165 30.000001" height="40" preserveAspectRatio="xMidYMid meet" version="1.0"><defs><g/></defs><g fill="#5bafeb" fill-opacity="0.4"><g transform="translate(7.465895, 24.100237)"><g><path d="M 6.875 -10.203125 L 6.875 -17.15625 C 6.875 -17.394531 6.988281 -17.515625 7.21875 -17.515625 L 9.484375 -17.515625 C 9.722656 -17.515625 9.84375 -17.394531 9.84375 -17.15625 L 9.84375 -0.34375 C 9.84375 -0.113281 9.722656 0 9.484375 0 L 7.21875 0 C 6.988281 0 6.875 -0.113281 6.875 -0.34375 L 6.875 -7.3125 L 4.078125 -7.3125 L 4.078125 -0.34375 C 4.078125 -0.113281 3.957031 0 3.71875 0 L 1.46875 0 C 1.21875 0 1.09375 -0.113281 1.09375 -0.34375 L 1.09375 -17.15625 C 1.09375 -17.394531 1.21875 -17.515625 1.46875 -17.515625 L 3.71875 -17.515625 C 3.957031 -17.515625 4.078125 -17.394531 4.078125 -17.15625 L 4.078125 -10.203125 Z M 6.875 -10.203125 "/></g></g></g><g fill="#5bafeb" fill-opacity="0.4"><g transform="translate(16.875062, 24.100237)"><g><path d="M 9.828125 -17.15625 L 9.828125 -14.96875 C 9.828125 -14.71875 9.710938 -14.59375 9.484375 -14.59375 L 4 -14.59375 L 4 -10.21875 L 8.1875 -10.21875 C 8.414062 -10.21875 8.53125 -10.09375 8.53125 -9.84375 L 8.53125 -7.6875 C 8.53125 -7.4375 8.414062 -7.3125 8.1875 -7.3125 L 4 -7.3125 L 4 -2.890625 L 9.484375 -2.890625 C 9.710938 -2.890625 9.828125 -2.773438 9.828125 -2.546875 L 9.828125 -0.34375 C 9.828125 -0.113281 9.710938 0 9.484375 0 L 1.421875 0 C 1.203125 0 1.09375 -0.113281 1.09375 -0.34375 L 1.09375 -17.15625 C 1.09375 -17.394531 1.203125 -17.515625 1.421875 -17.515625 L 9.484375 -17.515625 C 9.710938 -17.515625 9.828125 -17.394531 9.828125 -17.15625 Z M 9.828125 -17.15625 "/></g></g></g><g fill="#5bafeb" fill-opacity="0.4"><g transform="translate(26.262346, 24.100237)"><g><path d="M 11.640625 0 L 9.328125 0 C 9.140625 0 9.019531 -0.101562 8.96875 -0.3125 L 8.359375 -3.5 L 4.46875 -3.5 L 3.875 -0.3125 C 3.832031 -0.101562 3.71875 0 3.53125 0 L 1.1875 0 C 0.914062 0 0.816406 -0.125 0.890625 -0.375 L 4.53125 -17.203125 C 4.570312 -17.410156 4.695312 -17.515625 4.90625 -17.515625 L 7.953125 -17.515625 C 8.148438 -17.515625 8.269531 -17.410156 8.3125 -17.203125 L 11.953125 -0.375 C 11.992188 -0.125 11.890625 0 11.640625 0 Z M 7.8125 -6.046875 L 6.40625 -13.6875 L 5.015625 -6.046875 Z M 7.8125 -6.046875 "/></g></g></g><g fill="#5bafeb" fill-opacity="0.4"><g transform="translate(37.553377, 24.100237)"><g><path d="M 1.09375 -0.34375 L 1.09375 -17.15625 C 1.09375 -17.394531 1.207031 -17.515625 1.4375 -17.515625 L 6.703125 -17.515625 C 7.734375 -17.515625 8.515625 -17.242188 9.046875 -16.703125 C 9.578125 -16.160156 9.84375 -15.375 9.84375 -14.34375 L 9.84375 -3.15625 C 9.84375 -2.132812 9.578125 -1.351562 9.046875 -0.8125 C 8.515625 -0.269531 7.734375 0 6.703125 0 L 1.4375 0 C 1.207031 0 1.09375 -0.113281 1.09375 -0.34375 Z M 4.078125 -2.890625 L 6.078125 -2.890625 C 6.671875 -2.890625 6.96875 -3.179688 6.96875 -3.765625 L 6.96875 -13.71875 C 6.96875 -14.320312 6.671875 -14.625 6.078125 -14.625 L 4.078125 -14.625 Z M 4.078125 -2.890625 "/></g></g></g><g fill="#5bafeb" fill-opacity="0.4"><g transform="translate(46.962544, 24.100237)"><g><path d="M 9.828125 -17.15625 L 9.828125 -14.96875 C 9.828125 -14.71875 9.710938 -14.59375 9.484375 -14.59375 L 4 -14.59375 L 4 -10.21875 L 8.1875 -10.21875 C 8.414062 -10.21875 8.53125 -10.09375 8.53125 -9.84375 L 8.53125 -7.6875 C 8.53125 -7.4375 8.414062 -7.3125 8.1875 -7.3125 L 4 -7.3125 L 4 -2.890625 L 9.484375 -2.890625 C 9.710938 -2.890625 9.828125 -2.773438 9.828125 -2.546875 L 9.828125 -0.34375 C 9.828125 -0.113281 9.710938 0 9.484375 0 L 1.421875 0 C 1.203125 0 1.09375 -0.113281 1.09375 -0.34375 L 1.09375 -17.15625 C 1.09375 -17.394531 1.203125 -17.515625 1.421875 -17.515625 L 9.484375 -17.515625 C 9.710938 -17.515625 9.828125 -17.394531 9.828125 -17.15625 Z M 9.828125 -17.15625 "/></g></g></g><g fill="#5bafeb" fill-opacity="0.4"><g transform="translate(56.349829, 24.100237)"><g><path d="M 10.09375 -14.359375 L 10.09375 -9.015625 C 10.09375 -7.554688 9.5625 -6.59375 8.5 -6.125 L 10 -0.390625 C 10.070312 -0.128906 9.972656 0 9.703125 0 L 7.421875 0 C 7.210938 0 7.085938 -0.101562 7.046875 -0.3125 L 5.578125 -5.859375 L 4.078125 -5.859375 L 4.078125 -0.34375 C 4.078125 -0.113281 3.957031 0 3.71875 0 L 1.4375 0 C 1.207031 0 1.09375 -0.113281 1.09375 -0.34375 L 1.09375 -17.15625 C 1.09375 -17.394531 1.207031 -17.515625 1.4375 -17.515625 L 6.9375 -17.515625 C 7.976562 -17.515625 8.765625 -17.25 9.296875 -16.71875 C 9.828125 -16.1875 10.09375 -15.398438 10.09375 -14.359375 Z M 4.078125 -8.75 L 6.234375 -8.75 C 6.816406 -8.75 7.109375 -9.039062 7.109375 -9.625 L 7.109375 -13.75 C 7.109375 -14.332031 6.816406 -14.625 6.234375 -14.625 L 4.078125 -14.625 Z M 4.078125 -8.75 "/></g></g></g><g fill="#5bafeb" fill-opacity="0.4"><g transform="translate(69.938331, 24.100237)"><g><path d="M 7.8125 -17.515625 L 10.09375 -17.515625 C 10.320312 -17.515625 10.4375 -17.394531 10.4375 -17.15625 L 10.4375 -0.34375 C 10.4375 -0.113281 10.320312 0 10.09375 0 L 7.921875 0 C 7.722656 0 7.59375 -0.09375 7.53125 -0.28125 L 4.1875 -9.625 L 4.078125 -9.625 L 4.078125 -0.34375 C 4.078125 -0.113281 3.957031 0 3.71875 0 L 1.4375 0 C 1.207031 0 1.09375 -0.113281 1.09375 -0.34375 L 1.09375 -17.15625 C 1.09375 -17.394531 1.207031 -17.515625 1.4375 -17.515625 L 3.609375 -17.515625 C 3.816406 -17.515625 3.945312 -17.421875 4 -17.234375 L 7.328125 -7.921875 L 7.46875 -7.921875 L 7.46875 -17.15625 C 7.46875 -17.394531 7.582031 -17.515625 7.8125 -17.515625 Z M 7.8125 -17.515625 "/></g></g></g><g fill="#5bafeb" fill-opacity="0.4"><g transform="translate(79.938317, 24.100237)"><g><path d="M 11.640625 0 L 9.328125 0 C 9.140625 0 9.019531 -0.101562 8.96875 -0.3125 L 8.359375 -3.5 L 4.46875 -3.5 L 3.875 -0.3125 C 3.832031 -0.101562 3.71875 0 3.53125 0 L 1.1875 0 C 0.914062 0 0.816406 -0.125 0.890625 -0.375 L 4.53125 -17.203125 C 4.570312 -17.410156 4.695312 -17.515625 4.90625 -17.515625 L 7.953125 -17.515625 C 8.148438 -17.515625 8.269531 -17.410156 8.3125 -17.203125 L 11.953125 -0.375 C 11.992188 -0.125 11.890625 0 11.640625 0 Z M 7.8125 -6.046875 L 6.40625 -13.6875 L 5.015625 -6.046875 Z M 7.8125 -6.046875 "/></g></g></g><g fill="#5bafeb" fill-opacity="0.4"><g transform="translate(91.229346, 24.100237)"><g><path d="M 8.734375 -17.515625 L 10.8125 -17.515625 C 11.144531 -17.515625 11.273438 -17.351562 11.203125 -17.03125 L 7.515625 -0.390625 C 7.453125 -0.128906 7.289062 0 7.03125 0 L 4.84375 0 C 4.59375 0 4.429688 -0.128906 4.359375 -0.390625 L 0.671875 -17.03125 C 0.597656 -17.351562 0.734375 -17.515625 1.078125 -17.515625 L 3.15625 -17.515625 C 3.414062 -17.515625 3.578125 -17.382812 3.640625 -17.125 L 5.9375 -5.390625 L 8.25 -17.125 C 8.320312 -17.382812 8.484375 -17.515625 8.734375 -17.515625 Z M 8.734375 -17.515625 "/></g></g></g><g fill="#5bafeb" fill-opacity="0.4"><g transform="translate(101.579442, 24.100237)"><g><path d="M 1.4375 -17.515625 L 3.71875 -17.515625 C 3.957031 -17.515625 4.078125 -17.394531 4.078125 -17.15625 L 4.078125 -0.34375 C 4.078125 -0.113281 3.957031 0 3.71875 0 L 1.4375 0 C 1.207031 0 1.09375 -0.113281 1.09375 -0.34375 L 1.09375 -17.15625 C 1.09375 -17.394531 1.207031 -17.515625 1.4375 -17.515625 Z M 1.4375 -17.515625 "/></g></g></g><g fill="#5bafeb" fill-opacity="0.4"><g transform="translate(105.211724, 24.100237)"><g><path d="M 1.09375 -3.15625 L 1.09375 -14.359375 C 1.09375 -15.398438 1.363281 -16.1875 1.90625 -16.71875 C 2.445312 -17.25 3.226562 -17.515625 4.25 -17.515625 L 7.140625 -17.515625 C 8.160156 -17.515625 8.9375 -17.25 9.46875 -16.71875 C 10.007812 -16.1875 10.28125 -15.398438 10.28125 -14.359375 L 10.28125 -12.078125 C 10.28125 -11.847656 10.164062 -11.734375 9.9375 -11.734375 L 7.75 -11.734375 C 7.519531 -11.734375 7.40625 -11.847656 7.40625 -12.078125 L 7.40625 -13.75 C 7.40625 -14.332031 7.109375 -14.625 6.515625 -14.625 L 4.953125 -14.625 C 4.367188 -14.625 4.078125 -14.332031 4.078125 -13.75 L 4.078125 -3.765625 C 4.078125 -3.179688 4.367188 -2.890625 4.953125 -2.890625 L 6.515625 -2.890625 C 7.109375 -2.890625 7.40625 -3.179688 7.40625 -3.765625 L 7.40625 -6.703125 L 6.265625 -6.703125 C 6.023438 -6.703125 5.90625 -6.816406 5.90625 -7.046875 L 5.90625 -9.234375 C 5.90625 -9.472656 6.023438 -9.59375 6.265625 -9.59375 L 9.9375 -9.59375 C 10.164062 -9.59375 10.28125 -9.472656 10.28125 -9.234375 L 10.28125 -3.15625 C 10.28125 -2.132812 10.007812 -1.351562 9.46875 -0.8125 C 8.9375 -0.269531 8.160156 0 7.140625 0 L 4.25 0 C 3.226562 0 2.445312 -0.269531 1.90625 -0.8125 C 1.363281 -1.351562 1.09375 -2.132812 1.09375 -3.15625 Z M 1.09375 -3.15625 "/></g></g></g><g fill="#5bafeb" fill-opacity="0.4"><g transform="translate(115.058537, 24.100237)"><g><path d="M 11.640625 0 L 9.328125 0 C 9.140625 0 9.019531 -0.101562 8.96875 -0.3125 L 8.359375 -3.5 L 4.46875 -3.5 L 3.875 -0.3125 C 3.832031 -0.101562 3.71875 0 3.53125 0 L 1.1875 0 C 0.914062 0 0.816406 -0.125 0.890625 -0.375 L 4.53125 -17.203125 C 4.570312 -17.410156 4.695312 -17.515625 4.90625 -17.515625 L 7.953125 -17.515625 C 8.148438 -17.515625 8.269531 -17.410156 8.3125 -17.203125 L 11.953125 -0.375 C 11.992188 -0.125 11.890625 0 11.640625 0 Z M 7.8125 -6.046875 L 6.40625 -13.6875 L 5.015625 -6.046875 Z M 7.8125 -6.046875 "/></g></g></g><g fill="#5bafeb" fill-opacity="0.4"><g transform="translate(126.349572, 24.100237)"><g><path d="M 1 -17.515625 L 9.0625 -17.515625 C 9.289062 -17.515625 9.40625 -17.394531 9.40625 -17.15625 L 9.40625 -14.96875 C 9.40625 -14.738281 9.289062 -14.625 9.0625 -14.625 L 6.515625 -14.625 L 6.515625 -0.34375 C 6.515625 -0.113281 6.398438 0 6.171875 0 L 3.890625 0 C 3.660156 0 3.546875 -0.113281 3.546875 -0.34375 L 3.546875 -14.625 L 1 -14.625 C 0.769531 -14.625 0.65625 -14.738281 0.65625 -14.96875 L 0.65625 -17.15625 C 0.65625 -17.394531 0.769531 -17.515625 1 -17.515625 Z M 1 -17.515625 "/></g></g></g><g fill="#5bafeb" fill-opacity="0.4"><g transform="translate(134.883459, 24.100237)"><g><path d="M 1.4375 -17.515625 L 3.71875 -17.515625 C 3.957031 -17.515625 4.078125 -17.394531 4.078125 -17.15625 L 4.078125 -0.34375 C 4.078125 -0.113281 3.957031 0 3.71875 0 L 1.4375 0 C 1.207031 0 1.09375 -0.113281 1.09375 -0.34375 L 1.09375 -17.15625 C 1.09375 -17.394531 1.207031 -17.515625 1.4375 -17.515625 Z M 1.4375 -17.515625 "/></g></g></g><g fill="#5bafeb" fill-opacity="0.4"><g transform="translate(138.515741, 24.100237)"><g><path d="M 1.09375 -3.15625 L 1.09375 -14.359375 C 1.09375 -15.398438 1.363281 -16.1875 1.90625 -16.71875 C 2.445312 -17.25 3.226562 -17.515625 4.25 -17.515625 L 6.703125 -17.515625 C 7.734375 -17.515625 8.515625 -17.25 9.046875 -16.71875 C 9.578125 -16.1875 9.84375 -15.398438 9.84375 -14.359375 L 9.84375 -3.15625 C 9.84375 -2.132812 9.578125 -1.351562 9.046875 -0.8125 C 8.515625 -0.269531 7.734375 0 6.703125 0 L 4.25 0 C 3.226562 0 2.445312 -0.269531 1.90625 -0.8125 C 1.363281 -1.351562 1.09375 -2.132812 1.09375 -3.15625 Z M 4.875 -2.828125 L 6.15625 -2.828125 C 6.738281 -2.828125 7.03125 -3.117188 7.03125 -3.703125 L 7.03125 -13.8125 C 7.03125 -14.394531 6.738281 -14.6875 6.15625 -14.6875 L 4.875 -14.6875 C 4.289062 -14.6875 4 -14.394531 4 -13.8125 L 4 -3.703125 C 4 -3.117188 4.289062 -2.828125 4.875 -2.828125 Z M 4.875 -2.828125 "/></g></g></g><g fill="#5bafeb" fill-opacity="0.4"><g transform="translate(147.924912, 24.100237)"><g><path d="M 7.8125 -17.515625 L 10.09375 -17.515625 C 10.320312 -17.515625 10.4375 -17.394531 10.4375 -17.15625 L 10.4375 -0.34375 C 10.4375 -0.113281 10.320312 0 10.09375 0 L 7.921875 0 C 7.722656 0 7.59375 -0.09375 7.53125 -0.28125 L 4.1875 -9.625 L 4.078125 -9.625 L 4.078125 -0.34375 C 4.078125 -0.113281 3.957031 0 3.71875 0 L 1.4375 0 C 1.207031 0 1.09375 -0.113281 1.09375 -0.34375 L 1.09375 -17.15625 C 1.09375 -17.394531 1.207031 -17.515625 1.4375 -17.515625 L 3.609375 -17.515625 C 3.816406 -17.515625 3.945312 -17.421875 4 -17.234375 L 7.328125 -7.921875 L 7.46875 -7.921875 L 7.46875 -17.15625 C 7.46875 -17.394531 7.582031 -17.515625 7.8125 -17.515625 Z M 7.8125 -17.515625 "/></g></g></g><g fill="#5bafeb" fill-opacity="1"><g transform="translate(6.498736, 23.133078)"><g><path d="M 6.875 -10.203125 L 6.875 -17.15625 C 6.875 -17.394531 6.988281 -17.515625 7.21875 -17.515625 L 9.484375 -17.515625 C 9.722656 -17.515625 9.84375 -17.394531 9.84375 -17.15625 L 9.84375 -0.34375 C 9.84375 -0.113281 9.722656 0 9.484375 0 L 7.21875 0 C 6.988281 0 6.875 -0.113281 6.875 -0.34375 L 6.875 -7.3125 L 4.078125 -7.3125 L 4.078125 -0.34375 C 4.078125 -0.113281 3.957031 0 3.71875 0 L 1.46875 0 C 1.21875 0 1.09375 -0.113281 1.09375 -0.34375 L 1.09375 -17.15625 C 1.09375 -17.394531 1.21875 -17.515625 1.46875 -17.515625 L 3.71875 -17.515625 C 3.957031 -17.515625 4.078125 -17.394531 4.078125 -17.15625 L 4.078125 -10.203125 Z M 6.875 -10.203125 "/></g></g></g><g fill="#5bafeb" fill-opacity="1"><g transform="translate(15.907903, 23.133078)"><g><path d="M 9.828125 -17.15625 L 9.828125 -14.96875 C 9.828125 -14.71875 9.710938 -14.59375 9.484375 -14.59375 L 4 -14.59375 L 4 -10.21875 L 8.1875 -10.21875 C 8.414062 -10.21875 8.53125 -10.09375 8.53125 -9.84375 L 8.53125 -7.6875 C 8.53125 -7.4375 8.414062 -7.3125 8.1875 -7.3125 L 4 -7.3125 L 4 -2.890625 L 9.484375 -2.890625 C 9.710938 -2.890625 9.828125 -2.773438 9.828125 -2.546875 L 9.828125 -0.34375 C 9.828125 -0.113281 9.710938 0 9.484375 0 L 1.421875 0 C 1.203125 0 1.09375 -0.113281 1.09375 -0.34375 L 1.09375 -17.15625 C 1.09375 -17.394531 1.203125 -17.515625 1.421875 -17.515625 L 9.484375 -17.515625 C 9.710938 -17.515625 9.828125 -17.394531 9.828125 -17.15625 Z M 9.828125 -17.15625 "/></g></g></g><g fill="#5bafeb" fill-opacity="1"><g transform="translate(25.295188, 23.133078)"><g><path d="M 11.640625 0 L 9.328125 0 C 9.140625 0 9.019531 -0.101562 8.96875 -0.3125 L 8.359375 -3.5 L 4.46875 -3.5 L 3.875 -0.3125 C 3.832031 -0.101562 3.71875 0 3.53125 0 L 1.1875 0 C 0.914062 0 0.816406 -0.125 0.890625 -0.375 L 4.53125 -17.203125 C 4.570312 -17.410156 4.695312 -17.515625 4.90625 -17.515625 L 7.953125 -17.515625 C 8.148438 -17.515625 8.269531 -17.410156 8.3125 -17.203125 L 11.953125 -0.375 C 11.992188 -0.125 11.890625 0 11.640625 0 Z M 7.8125 -6.046875 L 6.40625 -13.6875 L 5.015625 -6.046875 Z M 7.8125 -6.046875 "/></g></g></g><g fill="#5bafeb" fill-opacity="1"><g transform="translate(36.586218, 23.133078)"><g><path d="M 1.09375 -0.34375 L 1.09375 -17.15625 C 1.09375 -17.394531 1.207031 -17.515625 1.4375 -17.515625 L 6.703125 -17.515625 C 7.734375 -17.515625 8.515625 -17.242188 9.046875 -16.703125 C 9.578125 -16.160156 9.84375 -15.375 9.84375 -14.34375 L 9.84375 -3.15625 C 9.84375 -2.132812 9.578125 -1.351562 9.046875 -0.8125 C 8.515625 -0.269531 7.734375 0 6.703125 0 L 1.4375 0 C 1.207031 0 1.09375 -0.113281 1.09375 -0.34375 Z M 4.078125 -2.890625 L 6.078125 -2.890625 C 6.671875 -2.890625 6.96875 -3.179688 6.96875 -3.765625 L 6.96875 -13.71875 C 6.96875 -14.320312 6.671875 -14.625 6.078125 -14.625 L 4.078125 -14.625 Z M 4.078125 -2.890625 "/></g></g></g><g fill="#5bafeb" fill-opacity="1"><g transform="translate(45.995386, 23.133078)"><g><path d="M 9.828125 -17.15625 L 9.828125 -14.96875 C 9.828125 -14.71875 9.710938 -14.59375 9.484375 -14.59375 L 4 -14.59375 L 4 -10.21875 L 8.1875 -10.21875 C 8.414062 -10.21875 8.53125 -10.09375 8.53125 -9.84375 L 8.53125 -7.6875 C 8.53125 -7.4375 8.414062 -7.3125 8.1875 -7.3125 L 4 -7.3125 L 4 -2.890625 L 9.484375 -2.890625 C 9.710938 -2.890625 9.828125 -2.773438 9.828125 -2.546875 L 9.828125 -0.34375 C 9.828125 -0.113281 9.710938 0 9.484375 0 L 1.421875 0 C 1.203125 0 1.09375 -0.113281 1.09375 -0.34375 L 1.09375 -17.15625 C 1.09375 -17.394531 1.203125 -17.515625 1.421875 -17.515625 L 9.484375 -17.515625 C 9.710938 -17.515625 9.828125 -17.394531 9.828125 -17.15625 Z M 9.828125 -17.15625 "/></g></g></g><g fill="#5bafeb" fill-opacity="1"><g transform="translate(55.382671, 23.133078)"><g><path d="M 10.09375 -14.359375 L 10.09375 -9.015625 C 10.09375 -7.554688 9.5625 -6.59375 8.5 -6.125 L 10 -0.390625 C 10.070312 -0.128906 9.972656 0 9.703125 0 L 7.421875 0 C 7.210938 0 7.085938 -0.101562 7.046875 -0.3125 L 5.578125 -5.859375 L 4.078125 -5.859375 L 4.078125 -0.34375 C 4.078125 -0.113281 3.957031 0 3.71875 0 L 1.4375 0 C 1.207031 0 1.09375 -0.113281 1.09375 -0.34375 L 1.09375 -17.15625 C 1.09375 -17.394531 1.207031 -17.515625 1.4375 -17.515625 L 6.9375 -17.515625 C 7.976562 -17.515625 8.765625 -17.25 9.296875 -16.71875 C 9.828125 -16.1875 10.09375 -15.398438 10.09375 -14.359375 Z M 4.078125 -8.75 L 6.234375 -8.75 C 6.816406 -8.75 7.109375 -9.039062 7.109375 -9.625 L 7.109375 -13.75 C 7.109375 -14.332031 6.816406 -14.625 6.234375 -14.625 L 4.078125 -14.625 Z M 4.078125 -8.75 "/></g></g></g><g fill="#5bafeb" fill-opacity="1"><g transform="translate(65.032539, 23.133078)"><g/></g></g><g fill="#5bafeb" fill-opacity="1"><g transform="translate(68.971173, 23.133078)"><g><path d="M 7.8125 -17.515625 L 10.09375 -17.515625 C 10.320312 -17.515625 10.4375 -17.394531 10.4375 -17.15625 L 10.4375 -0.34375 C 10.4375 -0.113281 10.320312 0 10.09375 0 L 7.921875 0 C 7.722656 0 7.59375 -0.09375 7.53125 -0.28125 L 4.1875 -9.625 L 4.078125 -9.625 L 4.078125 -0.34375 C 4.078125 -0.113281 3.957031 0 3.71875 0 L 1.4375 0 C 1.207031 0 1.09375 -0.113281 1.09375 -0.34375 L 1.09375 -17.15625 C 1.09375 -17.394531 1.207031 -17.515625 1.4375 -17.515625 L 3.609375 -17.515625 C 3.816406 -17.515625 3.945312 -17.421875 4 -17.234375 L 7.328125 -7.921875 L 7.46875 -7.921875 L 7.46875 -17.15625 C 7.46875 -17.394531 7.582031 -17.515625 7.8125 -17.515625 Z M 7.8125 -17.515625 "/></g></g></g><g fill="#5bafeb" fill-opacity="1"><g transform="translate(78.971158, 23.133078)"><g><path d="M 11.640625 0 L 9.328125 0 C 9.140625 0 9.019531 -0.101562 8.96875 -0.3125 L 8.359375 -3.5 L 4.46875 -3.5 L 3.875 -0.3125 C 3.832031 -0.101562 3.71875 0 3.53125 0 L 1.1875 0 C 0.914062 0 0.816406 -0.125 0.890625 -0.375 L 4.53125 -17.203125 C 4.570312 -17.410156 4.695312 -17.515625 4.90625 -17.515625 L 7.953125 -17.515625 C 8.148438 -17.515625 8.269531 -17.410156 8.3125 -17.203125 L 11.953125 -0.375 C 11.992188 -0.125 11.890625 0 11.640625 0 Z M 7.8125 -6.046875 L 6.40625 -13.6875 L 5.015625 -6.046875 Z M 7.8125 -6.046875 "/></g></g></g><g fill="#5bafeb" fill-opacity="1"><g transform="translate(90.262187, 23.133078)"><g><path d="M 8.734375 -17.515625 L 10.8125 -17.515625 C 11.144531 -17.515625 11.273438 -17.351562 11.203125 -17.03125 L 7.515625 -0.390625 C 7.453125 -0.128906 7.289062 0 7.03125 0 L 4.84375 0 C 4.59375 0 4.429688 -0.128906 4.359375 -0.390625 L 0.671875 -17.03125 C 0.597656 -17.351562 0.734375 -17.515625 1.078125 -17.515625 L 3.15625 -17.515625 C 3.414062 -17.515625 3.578125 -17.382812 3.640625 -17.125 L 5.9375 -5.390625 L 8.25 -17.125 C 8.320312 -17.382812 8.484375 -17.515625 8.734375 -17.515625 Z M 8.734375 -17.515625 "/></g></g></g><g fill="#5bafeb" fill-opacity="1"><g transform="translate(100.612284, 23.133078)"><g><path d="M 1.4375 -17.515625 L 3.71875 -17.515625 C 3.957031 -17.515625 4.078125 -17.394531 4.078125 -17.15625 L 4.078125 -0.34375 C 4.078125 -0.113281 3.957031 0 3.71875 0 L 1.4375 0 C 1.207031 0 1.09375 -0.113281 1.09375 -0.34375 L 1.09375 -17.15625 C 1.09375 -17.394531 1.207031 -17.515625 1.4375 -17.515625 Z M 1.4375 -17.515625 "/></g></g></g><g fill="#5bafeb" fill-opacity="1"><g transform="translate(104.244566, 23.133078)"><g><path d="M 1.09375 -3.15625 L 1.09375 -14.359375 C 1.09375 -15.398438 1.363281 -16.1875 1.90625 -16.71875 C 2.445312 -17.25 3.226562 -17.515625 4.25 -17.515625 L 7.140625 -17.515625 C 8.160156 -17.515625 8.9375 -17.25 9.46875 -16.71875 C 10.007812 -16.1875 10.28125 -15.398438 10.28125 -14.359375 L 10.28125 -12.078125 C 10.28125 -11.847656 10.164062 -11.734375 9.9375 -11.734375 L 7.75 -11.734375 C 7.519531 -11.734375 7.40625 -11.847656 7.40625 -12.078125 L 7.40625 -13.75 C 7.40625 -14.332031 7.109375 -14.625 6.515625 -14.625 L 4.953125 -14.625 C 4.367188 -14.625 4.078125 -14.332031 4.078125 -13.75 L 4.078125 -3.765625 C 4.078125 -3.179688 4.367188 -2.890625 4.953125 -2.890625 L 6.515625 -2.890625 C 7.109375 -2.890625 7.40625 -3.179688 7.40625 -3.765625 L 7.40625 -6.703125 L 6.265625 -6.703125 C 6.023438 -6.703125 5.90625 -6.816406 5.90625 -7.046875 L 5.90625 -9.234375 C 5.90625 -9.472656 6.023438 -9.59375 6.265625 -9.59375 L 9.9375 -9.59375 C 10.164062 -9.59375 10.28125 -9.472656 10.28125 -9.234375 L 10.28125 -3.15625 C 10.28125 -2.132812 10.007812 -1.351562 9.46875 -0.8125 C 8.9375 -0.269531 8.160156 0 7.140625 0 L 4.25 0 C 3.226562 0 2.445312 -0.269531 1.90625 -0.8125 C 1.363281 -1.351562 1.09375 -2.132812 1.09375 -3.15625 Z M 1.09375 -3.15625 "/></g></g></g><g fill="#5bafeb" fill-opacity="1"><g transform="translate(114.091378, 23.133078)"><g><path d="M 11.640625 0 L 9.328125 0 C 9.140625 0 9.019531 -0.101562 8.96875 -0.3125 L 8.359375 -3.5 L 4.46875 -3.5 L 3.875 -0.3125 C 3.832031 -0.101562 3.71875 0 3.53125 0 L 1.1875 0 C 0.914062 0 0.816406 -0.125 0.890625 -0.375 L 4.53125 -17.203125 C 4.570312 -17.410156 4.695312 -17.515625 4.90625 -17.515625 L 7.953125 -17.515625 C 8.148438 -17.515625 8.269531 -17.410156 8.3125 -17.203125 L 11.953125 -0.375 C 11.992188 -0.125 11.890625 0 11.640625 0 Z M 7.8125 -6.046875 L 6.40625 -13.6875 L 5.015625 -6.046875 Z M 7.8125 -6.046875 "/></g></g></g><g fill="#5bafeb" fill-opacity="1"><g transform="translate(125.382414, 23.133078)"><g><path d="M 1 -17.515625 L 9.0625 -17.515625 C 9.289062 -17.515625 9.40625 -17.394531 9.40625 -17.15625 L 9.40625 -14.96875 C 9.40625 -14.738281 9.289062 -14.625 9.0625 -14.625 L 6.515625 -14.625 L 6.515625 -0.34375 C 6.515625 -0.113281 6.398438 0 6.171875 0 L 3.890625 0 C 3.660156 0 3.546875 -0.113281 3.546875 -0.34375 L 3.546875 -14.625 L 1 -14.625 C 0.769531 -14.625 0.65625 -14.738281 0.65625 -14.96875 L 0.65625 -17.15625 C 0.65625 -17.394531 0.769531 -17.515625 1 -17.515625 Z M 1 -17.515625 "/></g></g></g><g fill="#5bafeb" fill-opacity="1"><g transform="translate(133.916301, 23.133078)"><g><path d="M 1.4375 -17.515625 L 3.71875 -17.515625 C 3.957031 -17.515625 4.078125 -17.394531 4.078125 -17.15625 L 4.078125 -0.34375 C 4.078125 -0.113281 3.957031 0 3.71875 0 L 1.4375 0 C 1.207031 0 1.09375 -0.113281 1.09375 -0.34375 L 1.09375 -17.15625 C 1.09375 -17.394531 1.207031 -17.515625 1.4375 -17.515625 Z M 1.4375 -17.515625 "/></g></g></g><g fill="#5bafeb" fill-opacity="1"><g transform="translate(137.548583, 23.133078)"><g><path d="M 1.09375 -3.15625 L 1.09375 -14.359375 C 1.09375 -15.398438 1.363281 -16.1875 1.90625 -16.71875 C 2.445312 -17.25 3.226562 -17.515625 4.25 -17.515625 L 6.703125 -17.515625 C 7.734375 -17.515625 8.515625 -17.25 9.046875 -16.71875 C 9.578125 -16.1875 9.84375 -15.398438 9.84375 -14.359375 L 9.84375 -3.15625 C 9.84375 -2.132812 9.578125 -1.351562 9.046875 -0.8125 C 8.515625 -0.269531 7.734375 0 6.703125 0 L 4.25 0 C 3.226562 0 2.445312 -0.269531 1.90625 -0.8125 C 1.363281 -1.351562 1.09375 -2.132812 1.09375 -3.15625 Z M 4.875 -2.828125 L 6.15625 -2.828125 C 6.738281 -2.828125 7.03125 -3.117188 7.03125 -3.703125 L 7.03125 -13.8125 C 7.03125 -14.394531 6.738281 -14.6875 6.15625 -14.6875 L 4.875 -14.6875 C 4.289062 -14.6875 4 -14.394531 4 -13.8125 L 4 -3.703125 C 4 -3.117188 4.289062 -2.828125 4.875 -2.828125 Z M 4.875 -2.828125 "/></g></g></g><g fill="#5bafeb" fill-opacity="1"><g transform="translate(146.957754, 23.133078)"><g><path d="M 7.8125 -17.515625 L 10.09375 -17.515625 C 10.320312 -17.515625 10.4375 -17.394531 10.4375 -17.15625 L 10.4375 -0.34375 C 10.4375 -0.113281 10.320312 0 10.09375 0 L 7.921875 0 C 7.722656 0 7.59375 -0.09375 7.53125 -0.28125 L 4.1875 -9.625 L 4.078125 -9.625 L 4.078125 -0.34375 C 4.078125 -0.113281 3.957031 0 3.71875 0 L 1.4375 0 C 1.207031 0 1.09375 -0.113281 1.09375 -0.34375 L 1.09375 -17.15625 C 1.09375 -17.394531 1.207031 -17.515625 1.4375 -17.515625 L 3.609375 -17.515625 C 3.816406 -17.515625 3.945312 -17.421875 4 -17.234375 L 7.328125 -7.921875 L 7.46875 -7.921875 L 7.46875 -17.15625 C 7.46875 -17.394531 7.582031 -17.515625 7.8125 -17.515625 Z M 7.8125 -17.515625 "/></g></g></g></svg>