<svg xmlns="http://www.w3.org/2000/svg" xmlns:xlink="http://www.w3.org/1999/xlink" width="220" zoomAndPan="magnify" viewBox="0 0 165 30.000001" height="40" preserveAspectRatio="xMidYMid meet" version="1.0"><defs><g/><clipPath id="991cbfb295"><path d="M 154 6 L 162.335938 6 L 162.335938 25 L 154 25 Z M 154 6 " clip-rule="nonzero"/></clipPath></defs><g fill="#5bafeb" fill-opacity="0.4"><g transform="translate(3.093307, 24.100237)"><g><path d="M 4.25 -17.515625 L 6.703125 -17.515625 C 7.734375 -17.515625 8.515625 -17.25 9.046875 -16.71875 C 9.578125 -16.1875 9.84375 -15.398438 9.84375 -14.359375 L 9.84375 -12.046875 C 9.84375 -11.804688 9.726562 -11.6875 9.5 -11.6875 L 7.21875 -11.6875 C 6.988281 -11.6875 6.875 -11.804688 6.875 -12.046875 L 6.875 -13.75 C 6.875 -14.332031 6.582031 -14.625 6 -14.625 L 4.953125 -14.625 C 4.367188 -14.625 4.078125 -14.332031 4.078125 -13.75 L 4.078125 -10.71875 L 9.28125 -9.015625 C 9.65625 -8.859375 9.84375 -8.585938 9.84375 -8.203125 L 9.84375 -3.15625 C 9.84375 -2.132812 9.578125 -1.351562 9.046875 -0.8125 C 8.515625 -0.269531 7.734375 0 6.703125 0 L 4.25 0 C 3.226562 0 2.445312 -0.269531 1.90625 -0.8125 C 1.363281 -1.351562 1.09375 -2.132812 1.09375 -3.15625 L 1.09375 -5.453125 C 1.09375 -5.679688 1.207031 -5.796875 1.4375 -5.796875 L 3.71875 -5.796875 C 3.957031 -5.796875 4.078125 -5.679688 4.078125 -5.453125 L 4.078125 -3.765625 C 4.078125 -3.179688 4.367188 -2.890625 4.953125 -2.890625 L 6 -2.890625 C 6.582031 -2.890625 6.875 -3.179688 6.875 -3.765625 L 6.875 -6.671875 L 1.6875 -8.390625 C 1.289062 -8.515625 1.09375 -8.78125 1.09375 -9.1875 L 1.09375 -14.359375 C 1.09375 -15.398438 1.363281 -16.1875 1.90625 -16.71875 C 2.445312 -17.25 3.226562 -17.515625 4.25 -17.515625 Z M 4.25 -17.515625 "/></g></g></g><g fill="#5bafeb" fill-opacity="0.4"><g transform="translate(12.502474, 24.100237)"><g><path d="M 1.4375 -17.515625 L 3.71875 -17.515625 C 3.957031 -17.515625 4.078125 -17.394531 4.078125 -17.15625 L 4.078125 -0.34375 C 4.078125 -0.113281 3.957031 0 3.71875 0 L 1.4375 0 C 1.207031 0 1.09375 -0.113281 1.09375 -0.34375 L 1.09375 -17.15625 C 1.09375 -17.394531 1.207031 -17.515625 1.4375 -17.515625 Z M 1.4375 -17.515625 "/></g></g></g><g fill="#5bafeb" fill-opacity="0.4"><g transform="translate(16.134758, 24.100237)"><g><path d="M 1.09375 -0.34375 L 1.09375 -17.15625 C 1.09375 -17.394531 1.207031 -17.515625 1.4375 -17.515625 L 6.703125 -17.515625 C 7.734375 -17.515625 8.515625 -17.242188 9.046875 -16.703125 C 9.578125 -16.160156 9.84375 -15.375 9.84375 -14.34375 L 9.84375 -3.15625 C 9.84375 -2.132812 9.578125 -1.351562 9.046875 -0.8125 C 8.515625 -0.269531 7.734375 0 6.703125 0 L 1.4375 0 C 1.207031 0 1.09375 -0.113281 1.09375 -0.34375 Z M 4.078125 -2.890625 L 6.078125 -2.890625 C 6.671875 -2.890625 6.96875 -3.179688 6.96875 -3.765625 L 6.96875 -13.71875 C 6.96875 -14.320312 6.671875 -14.625 6.078125 -14.625 L 4.078125 -14.625 Z M 4.078125 -2.890625 "/></g></g></g><g fill="#5bafeb" fill-opacity="0.4"><g transform="translate(25.543924, 24.100237)"><g><path d="M 9.828125 -17.15625 L 9.828125 -14.96875 C 9.828125 -14.71875 9.710938 -14.59375 9.484375 -14.59375 L 4 -14.59375 L 4 -10.21875 L 8.1875 -10.21875 C 8.414062 -10.21875 8.53125 -10.09375 8.53125 -9.84375 L 8.53125 -7.6875 C 8.53125 -7.4375 8.414062 -7.3125 8.1875 -7.3125 L 4 -7.3125 L 4 -2.890625 L 9.484375 -2.890625 C 9.710938 -2.890625 9.828125 -2.773438 9.828125 -2.546875 L 9.828125 -0.34375 C 9.828125 -0.113281 9.710938 0 9.484375 0 L 1.421875 0 C 1.203125 0 1.09375 -0.113281 1.09375 -0.34375 L 1.09375 -17.15625 C 1.09375 -17.394531 1.203125 -17.515625 1.421875 -17.515625 L 9.484375 -17.515625 C 9.710938 -17.515625 9.828125 -17.394531 9.828125 -17.15625 Z M 9.828125 -17.15625 "/></g></g></g><g fill="#5bafeb" fill-opacity="0.4"><g transform="translate(34.931209, 24.100237)"><g><path d="M 9.875 -14.359375 L 9.875 -10.328125 C 9.875 -9.921875 9.738281 -9.578125 9.46875 -9.296875 C 9.207031 -9.023438 8.882812 -8.851562 8.5 -8.78125 L 8.5 -8.734375 C 8.882812 -8.671875 9.207031 -8.5 9.46875 -8.21875 C 9.738281 -7.9375 9.875 -7.59375 9.875 -7.1875 L 9.875 -3.15625 C 9.875 -2.132812 9.601562 -1.351562 9.0625 -0.8125 C 8.519531 -0.269531 7.734375 0 6.703125 0 L 1.4375 0 C 1.207031 0 1.09375 -0.113281 1.09375 -0.34375 L 1.09375 -17.15625 C 1.09375 -17.394531 1.207031 -17.515625 1.4375 -17.515625 L 6.703125 -17.515625 C 7.734375 -17.515625 8.519531 -17.25 9.0625 -16.71875 C 9.601562 -16.1875 9.875 -15.398438 9.875 -14.359375 Z M 6.96875 -11.0625 L 6.96875 -13.75 C 6.96875 -14.332031 6.671875 -14.625 6.078125 -14.625 L 4.09375 -14.625 L 4.09375 -10.203125 L 6.078125 -10.203125 C 6.671875 -10.203125 6.96875 -10.488281 6.96875 -11.0625 Z M 6.96875 -3.765625 L 6.96875 -6.4375 C 6.96875 -7.019531 6.671875 -7.3125 6.078125 -7.3125 L 4.09375 -7.3125 L 4.09375 -2.890625 L 6.078125 -2.890625 C 6.671875 -2.890625 6.96875 -3.179688 6.96875 -3.765625 Z M 6.96875 -3.765625 "/></g></g></g><g fill="#5bafeb" fill-opacity="0.4"><g transform="translate(44.362259, 24.100237)"><g><path d="M 11.640625 0 L 9.328125 0 C 9.140625 0 9.019531 -0.101562 8.96875 -0.3125 L 8.359375 -3.5 L 4.46875 -3.5 L 3.875 -0.3125 C 3.832031 -0.101562 3.71875 0 3.53125 0 L 1.1875 0 C 0.914062 0 0.816406 -0.125 0.890625 -0.375 L 4.53125 -17.203125 C 4.570312 -17.410156 4.695312 -17.515625 4.90625 -17.515625 L 7.953125 -17.515625 C 8.148438 -17.515625 8.269531 -17.410156 8.3125 -17.203125 L 11.953125 -0.375 C 11.992188 -0.125 11.890625 0 11.640625 0 Z M 7.8125 -6.046875 L 6.40625 -13.6875 L 5.015625 -6.046875 Z M 7.8125 -6.046875 "/></g></g></g><g fill="#5bafeb" fill-opacity="0.4"><g transform="translate(55.653288, 24.100237)"><g><path d="M 10.09375 -14.359375 L 10.09375 -9.015625 C 10.09375 -7.554688 9.5625 -6.59375 8.5 -6.125 L 10 -0.390625 C 10.070312 -0.128906 9.972656 0 9.703125 0 L 7.421875 0 C 7.210938 0 7.085938 -0.101562 7.046875 -0.3125 L 5.578125 -5.859375 L 4.078125 -5.859375 L 4.078125 -0.34375 C 4.078125 -0.113281 3.957031 0 3.71875 0 L 1.4375 0 C 1.207031 0 1.09375 -0.113281 1.09375 -0.34375 L 1.09375 -17.15625 C 1.09375 -17.394531 1.207031 -17.515625 1.4375 -17.515625 L 6.9375 -17.515625 C 7.976562 -17.515625 8.765625 -17.25 9.296875 -16.71875 C 9.828125 -16.1875 10.09375 -15.398438 10.09375 -14.359375 Z M 4.078125 -8.75 L 6.234375 -8.75 C 6.816406 -8.75 7.109375 -9.039062 7.109375 -9.625 L 7.109375 -13.75 C 7.109375 -14.332031 6.816406 -14.625 6.234375 -14.625 L 4.078125 -14.625 Z M 4.078125 -8.75 "/></g></g></g><g fill="#5bafeb" fill-opacity="0.4"><g transform="translate(65.303157, 24.100237)"><g/></g></g><g fill="#5bafeb" fill-opacity="0.4"><g transform="translate(69.24179, 24.100237)"><g><path d="M 13.0625 -17.515625 L 15.140625 -17.515625 C 15.453125 -17.515625 15.59375 -17.359375 15.5625 -17.046875 L 13.6875 -0.421875 C 13.664062 -0.140625 13.507812 0 13.21875 0 L 11.078125 0 C 10.828125 0 10.664062 -0.128906 10.59375 -0.390625 L 8.3125 -10.28125 L 6.015625 -0.375 C 5.941406 -0.125 5.78125 0 5.53125 0 L 3.34375 0 C 3.050781 0 2.898438 -0.140625 2.890625 -0.421875 L 1.09375 -17.046875 C 1.0625 -17.359375 1.203125 -17.515625 1.515625 -17.515625 L 3.59375 -17.515625 C 3.863281 -17.515625 4.015625 -17.375 4.046875 -17.09375 L 4.90625 -6.859375 L 5.015625 -6.859375 L 7.1875 -17.125 C 7.257812 -17.382812 7.414062 -17.515625 7.65625 -17.515625 L 8.96875 -17.515625 C 9.238281 -17.515625 9.398438 -17.382812 9.453125 -17.125 L 11.609375 -6.859375 L 11.71875 -6.859375 L 12.609375 -17.09375 C 12.640625 -17.375 12.789062 -17.515625 13.0625 -17.515625 Z M 13.0625 -17.515625 "/></g></g></g><g fill="#5bafeb" fill-opacity="0.4"><g transform="translate(84.362202, 24.100237)"><g><path d="M 1.4375 -17.515625 L 3.71875 -17.515625 C 3.957031 -17.515625 4.078125 -17.394531 4.078125 -17.15625 L 4.078125 -0.34375 C 4.078125 -0.113281 3.957031 0 3.71875 0 L 1.4375 0 C 1.207031 0 1.09375 -0.113281 1.09375 -0.34375 L 1.09375 -17.15625 C 1.09375 -17.394531 1.207031 -17.515625 1.4375 -17.515625 Z M 1.4375 -17.515625 "/></g></g></g><g fill="#5bafeb" fill-opacity="0.4"><g transform="translate(87.994484, 24.100237)"><g><path d="M 1 -17.515625 L 9.0625 -17.515625 C 9.289062 -17.515625 9.40625 -17.394531 9.40625 -17.15625 L 9.40625 -14.96875 C 9.40625 -14.738281 9.289062 -14.625 9.0625 -14.625 L 6.515625 -14.625 L 6.515625 -0.34375 C 6.515625 -0.113281 6.398438 0 6.171875 0 L 3.890625 0 C 3.660156 0 3.546875 -0.113281 3.546875 -0.34375 L 3.546875 -14.625 L 1 -14.625 C 0.769531 -14.625 0.65625 -14.738281 0.65625 -14.96875 L 0.65625 -17.15625 C 0.65625 -17.394531 0.769531 -17.515625 1 -17.515625 Z M 1 -17.515625 "/></g></g></g><g fill="#5bafeb" fill-opacity="0.4"><g transform="translate(96.528365, 24.100237)"><g><path d="M 6.875 -10.203125 L 6.875 -17.15625 C 6.875 -17.394531 6.988281 -17.515625 7.21875 -17.515625 L 9.484375 -17.515625 C 9.722656 -17.515625 9.84375 -17.394531 9.84375 -17.15625 L 9.84375 -0.34375 C 9.84375 -0.113281 9.722656 0 9.484375 0 L 7.21875 0 C 6.988281 0 6.875 -0.113281 6.875 -0.34375 L 6.875 -7.3125 L 4.078125 -7.3125 L 4.078125 -0.34375 C 4.078125 -0.113281 3.957031 0 3.71875 0 L 1.46875 0 C 1.21875 0 1.09375 -0.113281 1.09375 -0.34375 L 1.09375 -17.15625 C 1.09375 -17.394531 1.21875 -17.515625 1.46875 -17.515625 L 3.71875 -17.515625 C 3.957031 -17.515625 4.078125 -17.394531 4.078125 -17.15625 L 4.078125 -10.203125 Z M 6.875 -10.203125 "/></g></g></g><g fill="#5bafeb" fill-opacity="0.4"><g transform="translate(105.937529, 24.100237)"><g/></g></g><g fill="#5bafeb" fill-opacity="0.4"><g transform="translate(109.876169, 24.100237)"><g><path d="M 10.25 -17.515625 L 13.140625 -17.515625 C 13.429688 -17.515625 13.578125 -17.367188 13.578125 -17.078125 L 13.578125 -0.4375 C 13.578125 -0.144531 13.429688 0 13.140625 0 L 11.09375 0 C 10.800781 0 10.65625 -0.144531 10.65625 -0.4375 L 10.65625 -10.28125 L 10.5 -10.28125 L 8.34375 -0.390625 C 8.28125 -0.128906 8.117188 0 7.859375 0 L 6.78125 0 C 6.53125 0 6.367188 -0.128906 6.296875 -0.390625 L 4.140625 -10.28125 L 3.984375 -10.28125 L 3.984375 -0.4375 C 3.984375 -0.144531 3.835938 0 3.546875 0 L 1.53125 0 C 1.238281 0 1.09375 -0.144531 1.09375 -0.4375 L 1.09375 -17.078125 C 1.09375 -17.367188 1.238281 -17.515625 1.53125 -17.515625 L 4.421875 -17.515625 C 4.679688 -17.515625 4.84375 -17.382812 4.90625 -17.125 L 7.328125 -6.21875 L 9.765625 -17.125 C 9.835938 -17.382812 10 -17.515625 10.25 -17.515625 Z M 10.25 -17.515625 "/></g></g></g><g fill="#5bafeb" fill-opacity="0.4"><g transform="translate(123.005303, 24.100237)"><g><path d="M 1.09375 -3.15625 L 1.09375 -14.359375 C 1.09375 -15.398438 1.363281 -16.1875 1.90625 -16.71875 C 2.445312 -17.25 3.226562 -17.515625 4.25 -17.515625 L 6.703125 -17.515625 C 7.734375 -17.515625 8.515625 -17.25 9.046875 -16.71875 C 9.578125 -16.1875 9.84375 -15.398438 9.84375 -14.359375 L 9.84375 -3.15625 C 9.84375 -2.132812 9.578125 -1.351562 9.046875 -0.8125 C 8.515625 -0.269531 7.734375 0 6.703125 0 L 4.25 0 C 3.226562 0 2.445312 -0.269531 1.90625 -0.8125 C 1.363281 -1.351562 1.09375 -2.132812 1.09375 -3.15625 Z M 4.875 -2.828125 L 6.15625 -2.828125 C 6.738281 -2.828125 7.03125 -3.117188 7.03125 -3.703125 L 7.03125 -13.8125 C 7.03125 -14.394531 6.738281 -14.6875 6.15625 -14.6875 L 4.875 -14.6875 C 4.289062 -14.6875 4 -14.394531 4 -13.8125 L 4 -3.703125 C 4 -3.117188 4.289062 -2.828125 4.875 -2.828125 Z M 4.875 -2.828125 "/></g></g></g><g fill="#5bafeb" fill-opacity="0.4"><g transform="translate(132.414474, 24.100237)"><g><path d="M 1.09375 -0.34375 L 1.09375 -17.15625 C 1.09375 -17.394531 1.207031 -17.515625 1.4375 -17.515625 L 6.703125 -17.515625 C 7.734375 -17.515625 8.515625 -17.242188 9.046875 -16.703125 C 9.578125 -16.160156 9.84375 -15.375 9.84375 -14.34375 L 9.84375 -3.15625 C 9.84375 -2.132812 9.578125 -1.351562 9.046875 -0.8125 C 8.515625 -0.269531 7.734375 0 6.703125 0 L 1.4375 0 C 1.207031 0 1.09375 -0.113281 1.09375 -0.34375 Z M 4.078125 -2.890625 L 6.078125 -2.890625 C 6.671875 -2.890625 6.96875 -3.179688 6.96875 -3.765625 L 6.96875 -13.71875 C 6.96875 -14.320312 6.671875 -14.625 6.078125 -14.625 L 4.078125 -14.625 Z M 4.078125 -2.890625 "/></g></g></g><g fill="#5bafeb" fill-opacity="0.4"><g transform="translate(141.823645, 24.100237)"><g><path d="M 11.640625 0 L 9.328125 0 C 9.140625 0 9.019531 -0.101562 8.96875 -0.3125 L 8.359375 -3.5 L 4.46875 -3.5 L 3.875 -0.3125 C 3.832031 -0.101562 3.71875 0 3.53125 0 L 1.1875 0 C 0.914062 0 0.816406 -0.125 0.890625 -0.375 L 4.53125 -17.203125 C 4.570312 -17.410156 4.695312 -17.515625 4.90625 -17.515625 L 7.953125 -17.515625 C 8.148438 -17.515625 8.269531 -17.410156 8.3125 -17.203125 L 11.953125 -0.375 C 11.992188 -0.125 11.890625 0 11.640625 0 Z M 7.8125 -6.046875 L 6.40625 -13.6875 L 5.015625 -6.046875 Z M 7.8125 -6.046875 "/></g></g></g><g clip-path="url(#991cbfb295)"><g fill="#5bafeb" fill-opacity="0.4"><g transform="translate(153.114681, 24.100237)"><g><path d="M 4.078125 -2.890625 L 4.078125 -17.15625 C 4.078125 -17.394531 3.957031 -17.515625 3.71875 -17.515625 L 1.4375 -17.515625 C 1.207031 -17.515625 1.09375 -17.394531 1.09375 -17.15625 L 1.09375 -0.34375 C 1.09375 -0.113281 1.207031 0 1.4375 0 L 9.28125 0 C 9.507812 0 9.625 -0.113281 9.625 -0.34375 L 9.625 -2.546875 C 9.625 -2.773438 9.507812 -2.890625 9.28125 -2.890625 Z M 4.078125 -2.890625 "/></g></g></g></g><g fill="#5bafeb" fill-opacity="1"><g transform="translate(2.126148, 23.133078)"><g><path d="M 4.25 -17.515625 L 6.703125 -17.515625 C 7.734375 -17.515625 8.515625 -17.25 9.046875 -16.71875 C 9.578125 -16.1875 9.84375 -15.398438 9.84375 -14.359375 L 9.84375 -12.046875 C 9.84375 -11.804688 9.726562 -11.6875 9.5 -11.6875 L 7.21875 -11.6875 C 6.988281 -11.6875 6.875 -11.804688 6.875 -12.046875 L 6.875 -13.75 C 6.875 -14.332031 6.582031 -14.625 6 -14.625 L 4.953125 -14.625 C 4.367188 -14.625 4.078125 -14.332031 4.078125 -13.75 L 4.078125 -10.71875 L 9.28125 -9.015625 C 9.65625 -8.859375 9.84375 -8.585938 9.84375 -8.203125 L 9.84375 -3.15625 C 9.84375 -2.132812 9.578125 -1.351562 9.046875 -0.8125 C 8.515625 -0.269531 7.734375 0 6.703125 0 L 4.25 0 C 3.226562 0 2.445312 -0.269531 1.90625 -0.8125 C 1.363281 -1.351562 1.09375 -2.132812 1.09375 -3.15625 L 1.09375 -5.453125 C 1.09375 -5.679688 1.207031 -5.796875 1.4375 -5.796875 L 3.71875 -5.796875 C 3.957031 -5.796875 4.078125 -5.679688 4.078125 -5.453125 L 4.078125 -3.765625 C 4.078125 -3.179688 4.367188 -2.890625 4.953125 -2.890625 L 6 -2.890625 C 6.582031 -2.890625 6.875 -3.179688 6.875 -3.765625 L 6.875 -6.671875 L 1.6875 -8.390625 C 1.289062 -8.515625 1.09375 -8.78125 1.09375 -9.1875 L 1.09375 -14.359375 C 1.09375 -15.398438 1.363281 -16.1875 1.90625 -16.71875 C 2.445312 -17.25 3.226562 -17.515625 4.25 -17.515625 Z M 4.25 -17.515625 "/></g></g></g><g fill="#5bafeb" fill-opacity="1"><g transform="translate(11.535315, 23.133078)"><g><path d="M 1.4375 -17.515625 L 3.71875 -17.515625 C 3.957031 -17.515625 4.078125 -17.394531 4.078125 -17.15625 L 4.078125 -0.34375 C 4.078125 -0.113281 3.957031 0 3.71875 0 L 1.4375 0 C 1.207031 0 1.09375 -0.113281 1.09375 -0.34375 L 1.09375 -17.15625 C 1.09375 -17.394531 1.207031 -17.515625 1.4375 -17.515625 Z M 1.4375 -17.515625 "/></g></g></g><g fill="#5bafeb" fill-opacity="1"><g transform="translate(15.1676, 23.133078)"><g><path d="M 1.09375 -0.34375 L 1.09375 -17.15625 C 1.09375 -17.394531 1.207031 -17.515625 1.4375 -17.515625 L 6.703125 -17.515625 C 7.734375 -17.515625 8.515625 -17.242188 9.046875 -16.703125 C 9.578125 -16.160156 9.84375 -15.375 9.84375 -14.34375 L 9.84375 -3.15625 C 9.84375 -2.132812 9.578125 -1.351562 9.046875 -0.8125 C 8.515625 -0.269531 7.734375 0 6.703125 0 L 1.4375 0 C 1.207031 0 1.09375 -0.113281 1.09375 -0.34375 Z M 4.078125 -2.890625 L 6.078125 -2.890625 C 6.671875 -2.890625 6.96875 -3.179688 6.96875 -3.765625 L 6.96875 -13.71875 C 6.96875 -14.320312 6.671875 -14.625 6.078125 -14.625 L 4.078125 -14.625 Z M 4.078125 -2.890625 "/></g></g></g><g fill="#5bafeb" fill-opacity="1"><g transform="translate(24.576766, 23.133078)"><g><path d="M 9.828125 -17.15625 L 9.828125 -14.96875 C 9.828125 -14.71875 9.710938 -14.59375 9.484375 -14.59375 L 4 -14.59375 L 4 -10.21875 L 8.1875 -10.21875 C 8.414062 -10.21875 8.53125 -10.09375 8.53125 -9.84375 L 8.53125 -7.6875 C 8.53125 -7.4375 8.414062 -7.3125 8.1875 -7.3125 L 4 -7.3125 L 4 -2.890625 L 9.484375 -2.890625 C 9.710938 -2.890625 9.828125 -2.773438 9.828125 -2.546875 L 9.828125 -0.34375 C 9.828125 -0.113281 9.710938 0 9.484375 0 L 1.421875 0 C 1.203125 0 1.09375 -0.113281 1.09375 -0.34375 L 1.09375 -17.15625 C 1.09375 -17.394531 1.203125 -17.515625 1.421875 -17.515625 L 9.484375 -17.515625 C 9.710938 -17.515625 9.828125 -17.394531 9.828125 -17.15625 Z M 9.828125 -17.15625 "/></g></g></g><g fill="#5bafeb" fill-opacity="1"><g transform="translate(33.964051, 23.133078)"><g><path d="M 9.875 -14.359375 L 9.875 -10.328125 C 9.875 -9.921875 9.738281 -9.578125 9.46875 -9.296875 C 9.207031 -9.023438 8.882812 -8.851562 8.5 -8.78125 L 8.5 -8.734375 C 8.882812 -8.671875 9.207031 -8.5 9.46875 -8.21875 C 9.738281 -7.9375 9.875 -7.59375 9.875 -7.1875 L 9.875 -3.15625 C 9.875 -2.132812 9.601562 -1.351562 9.0625 -0.8125 C 8.519531 -0.269531 7.734375 0 6.703125 0 L 1.4375 0 C 1.207031 0 1.09375 -0.113281 1.09375 -0.34375 L 1.09375 -17.15625 C 1.09375 -17.394531 1.207031 -17.515625 1.4375 -17.515625 L 6.703125 -17.515625 C 7.734375 -17.515625 8.519531 -17.25 9.0625 -16.71875 C 9.601562 -16.1875 9.875 -15.398438 9.875 -14.359375 Z M 6.96875 -11.0625 L 6.96875 -13.75 C 6.96875 -14.332031 6.671875 -14.625 6.078125 -14.625 L 4.09375 -14.625 L 4.09375 -10.203125 L 6.078125 -10.203125 C 6.671875 -10.203125 6.96875 -10.488281 6.96875 -11.0625 Z M 6.96875 -3.765625 L 6.96875 -6.4375 C 6.96875 -7.019531 6.671875 -7.3125 6.078125 -7.3125 L 4.09375 -7.3125 L 4.09375 -2.890625 L 6.078125 -2.890625 C 6.671875 -2.890625 6.96875 -3.179688 6.96875 -3.765625 Z M 6.96875 -3.765625 "/></g></g></g><g fill="#5bafeb" fill-opacity="1"><g transform="translate(43.395101, 23.133078)"><g><path d="M 11.640625 0 L 9.328125 0 C 9.140625 0 9.019531 -0.101562 8.96875 -0.3125 L 8.359375 -3.5 L 4.46875 -3.5 L 3.875 -0.3125 C 3.832031 -0.101562 3.71875 0 3.53125 0 L 1.1875 0 C 0.914062 0 0.816406 -0.125 0.890625 -0.375 L 4.53125 -17.203125 C 4.570312 -17.410156 4.695312 -17.515625 4.90625 -17.515625 L 7.953125 -17.515625 C 8.148438 -17.515625 8.269531 -17.410156 8.3125 -17.203125 L 11.953125 -0.375 C 11.992188 -0.125 11.890625 0 11.640625 0 Z M 7.8125 -6.046875 L 6.40625 -13.6875 L 5.015625 -6.046875 Z M 7.8125 -6.046875 "/></g></g></g><g fill="#5bafeb" fill-opacity="1"><g transform="translate(54.68613, 23.133078)"><g><path d="M 10.09375 -14.359375 L 10.09375 -9.015625 C 10.09375 -7.554688 9.5625 -6.59375 8.5 -6.125 L 10 -0.390625 C 10.070312 -0.128906 9.972656 0 9.703125 0 L 7.421875 0 C 7.210938 0 7.085938 -0.101562 7.046875 -0.3125 L 5.578125 -5.859375 L 4.078125 -5.859375 L 4.078125 -0.34375 C 4.078125 -0.113281 3.957031 0 3.71875 0 L 1.4375 0 C 1.207031 0 1.09375 -0.113281 1.09375 -0.34375 L 1.09375 -17.15625 C 1.09375 -17.394531 1.207031 -17.515625 1.4375 -17.515625 L 6.9375 -17.515625 C 7.976562 -17.515625 8.765625 -17.25 9.296875 -16.71875 C 9.828125 -16.1875 10.09375 -15.398438 10.09375 -14.359375 Z M 4.078125 -8.75 L 6.234375 -8.75 C 6.816406 -8.75 7.109375 -9.039062 7.109375 -9.625 L 7.109375 -13.75 C 7.109375 -14.332031 6.816406 -14.625 6.234375 -14.625 L 4.078125 -14.625 Z M 4.078125 -8.75 "/></g></g></g><g fill="#5bafeb" fill-opacity="1"><g transform="translate(64.335998, 23.133078)"><g/></g></g><g fill="#5bafeb" fill-opacity="1"><g transform="translate(68.274632, 23.133078)"><g><path d="M 13.0625 -17.515625 L 15.140625 -17.515625 C 15.453125 -17.515625 15.59375 -17.359375 15.5625 -17.046875 L 13.6875 -0.421875 C 13.664062 -0.140625 13.507812 0 13.21875 0 L 11.078125 0 C 10.828125 0 10.664062 -0.128906 10.59375 -0.390625 L 8.3125 -10.28125 L 6.015625 -0.375 C 5.941406 -0.125 5.78125 0 5.53125 0 L 3.34375 0 C 3.050781 0 2.898438 -0.140625 2.890625 -0.421875 L 1.09375 -17.046875 C 1.0625 -17.359375 1.203125 -17.515625 1.515625 -17.515625 L 3.59375 -17.515625 C 3.863281 -17.515625 4.015625 -17.375 4.046875 -17.09375 L 4.90625 -6.859375 L 5.015625 -6.859375 L 7.1875 -17.125 C 7.257812 -17.382812 7.414062 -17.515625 7.65625 -17.515625 L 8.96875 -17.515625 C 9.238281 -17.515625 9.398438 -17.382812 9.453125 -17.125 L 11.609375 -6.859375 L 11.71875 -6.859375 L 12.609375 -17.09375 C 12.640625 -17.375 12.789062 -17.515625 13.0625 -17.515625 Z M 13.0625 -17.515625 "/></g></g></g><g fill="#5bafeb" fill-opacity="1"><g transform="translate(83.395043, 23.133078)"><g><path d="M 1.4375 -17.515625 L 3.71875 -17.515625 C 3.957031 -17.515625 4.078125 -17.394531 4.078125 -17.15625 L 4.078125 -0.34375 C 4.078125 -0.113281 3.957031 0 3.71875 0 L 1.4375 0 C 1.207031 0 1.09375 -0.113281 1.09375 -0.34375 L 1.09375 -17.15625 C 1.09375 -17.394531 1.207031 -17.515625 1.4375 -17.515625 Z M 1.4375 -17.515625 "/></g></g></g><g fill="#5bafeb" fill-opacity="1"><g transform="translate(87.027325, 23.133078)"><g><path d="M 1 -17.515625 L 9.0625 -17.515625 C 9.289062 -17.515625 9.40625 -17.394531 9.40625 -17.15625 L 9.40625 -14.96875 C 9.40625 -14.738281 9.289062 -14.625 9.0625 -14.625 L 6.515625 -14.625 L 6.515625 -0.34375 C 6.515625 -0.113281 6.398438 0 6.171875 0 L 3.890625 0 C 3.660156 0 3.546875 -0.113281 3.546875 -0.34375 L 3.546875 -14.625 L 1 -14.625 C 0.769531 -14.625 0.65625 -14.738281 0.65625 -14.96875 L 0.65625 -17.15625 C 0.65625 -17.394531 0.769531 -17.515625 1 -17.515625 Z M 1 -17.515625 "/></g></g></g><g fill="#5bafeb" fill-opacity="1"><g transform="translate(95.561206, 23.133078)"><g><path d="M 6.875 -10.203125 L 6.875 -17.15625 C 6.875 -17.394531 6.988281 -17.515625 7.21875 -17.515625 L 9.484375 -17.515625 C 9.722656 -17.515625 9.84375 -17.394531 9.84375 -17.15625 L 9.84375 -0.34375 C 9.84375 -0.113281 9.722656 0 9.484375 0 L 7.21875 0 C 6.988281 0 6.875 -0.113281 6.875 -0.34375 L 6.875 -7.3125 L 4.078125 -7.3125 L 4.078125 -0.34375 C 4.078125 -0.113281 3.957031 0 3.71875 0 L 1.46875 0 C 1.21875 0 1.09375 -0.113281 1.09375 -0.34375 L 1.09375 -17.15625 C 1.09375 -17.394531 1.21875 -17.515625 1.46875 -17.515625 L 3.71875 -17.515625 C 3.957031 -17.515625 4.078125 -17.394531 4.078125 -17.15625 L 4.078125 -10.203125 Z M 6.875 -10.203125 "/></g></g></g><g fill="#5bafeb" fill-opacity="1"><g transform="translate(104.970371, 23.133078)"><g/></g></g><g fill="#5bafeb" fill-opacity="1"><g transform="translate(108.909011, 23.133078)"><g><path d="M 10.25 -17.515625 L 13.140625 -17.515625 C 13.429688 -17.515625 13.578125 -17.367188 13.578125 -17.078125 L 13.578125 -0.4375 C 13.578125 -0.144531 13.429688 0 13.140625 0 L 11.09375 0 C 10.800781 0 10.65625 -0.144531 10.65625 -0.4375 L 10.65625 -10.28125 L 10.5 -10.28125 L 8.34375 -0.390625 C 8.28125 -0.128906 8.117188 0 7.859375 0 L 6.78125 0 C 6.53125 0 6.367188 -0.128906 6.296875 -0.390625 L 4.140625 -10.28125 L 3.984375 -10.28125 L 3.984375 -0.4375 C 3.984375 -0.144531 3.835938 0 3.546875 0 L 1.53125 0 C 1.238281 0 1.09375 -0.144531 1.09375 -0.4375 L 1.09375 -17.078125 C 1.09375 -17.367188 1.238281 -17.515625 1.53125 -17.515625 L 4.421875 -17.515625 C 4.679688 -17.515625 4.84375 -17.382812 4.90625 -17.125 L 7.328125 -6.21875 L 9.765625 -17.125 C 9.835938 -17.382812 10 -17.515625 10.25 -17.515625 Z M 10.25 -17.515625 "/></g></g></g><g fill="#5bafeb" fill-opacity="1"><g transform="translate(122.038145, 23.133078)"><g><path d="M 1.09375 -3.15625 L 1.09375 -14.359375 C 1.09375 -15.398438 1.363281 -16.1875 1.90625 -16.71875 C 2.445312 -17.25 3.226562 -17.515625 4.25 -17.515625 L 6.703125 -17.515625 C 7.734375 -17.515625 8.515625 -17.25 9.046875 -16.71875 C 9.578125 -16.1875 9.84375 -15.398438 9.84375 -14.359375 L 9.84375 -3.15625 C 9.84375 -2.132812 9.578125 -1.351562 9.046875 -0.8125 C 8.515625 -0.269531 7.734375 0 6.703125 0 L 4.25 0 C 3.226562 0 2.445312 -0.269531 1.90625 -0.8125 C 1.363281 -1.351562 1.09375 -2.132812 1.09375 -3.15625 Z M 4.875 -2.828125 L 6.15625 -2.828125 C 6.738281 -2.828125 7.03125 -3.117188 7.03125 -3.703125 L 7.03125 -13.8125 C 7.03125 -14.394531 6.738281 -14.6875 6.15625 -14.6875 L 4.875 -14.6875 C 4.289062 -14.6875 4 -14.394531 4 -13.8125 L 4 -3.703125 C 4 -3.117188 4.289062 -2.828125 4.875 -2.828125 Z M 4.875 -2.828125 "/></g></g></g><g fill="#5bafeb" fill-opacity="1"><g transform="translate(131.447316, 23.133078)"><g><path d="M 1.09375 -0.34375 L 1.09375 -17.15625 C 1.09375 -17.394531 1.207031 -17.515625 1.4375 -17.515625 L 6.703125 -17.515625 C 7.734375 -17.515625 8.515625 -17.242188 9.046875 -16.703125 C 9.578125 -16.160156 9.84375 -15.375 9.84375 -14.34375 L 9.84375 -3.15625 C 9.84375 -2.132812 9.578125 -1.351562 9.046875 -0.8125 C 8.515625 -0.269531 7.734375 0 6.703125 0 L 1.4375 0 C 1.207031 0 1.09375 -0.113281 1.09375 -0.34375 Z M 4.078125 -2.890625 L 6.078125 -2.890625 C 6.671875 -2.890625 6.96875 -3.179688 6.96875 -3.765625 L 6.96875 -13.71875 C 6.96875 -14.320312 6.671875 -14.625 6.078125 -14.625 L 4.078125 -14.625 Z M 4.078125 -2.890625 "/></g></g></g><g fill="#5bafeb" fill-opacity="1"><g transform="translate(140.856487, 23.133078)"><g><path d="M 11.640625 0 L 9.328125 0 C 9.140625 0 9.019531 -0.101562 8.96875 -0.3125 L 8.359375 -3.5 L 4.46875 -3.5 L 3.875 -0.3125 C 3.832031 -0.101562 3.71875 0 3.53125 0 L 1.1875 0 C 0.914062 0 0.816406 -0.125 0.890625 -0.375 L 4.53125 -17.203125 C 4.570312 -17.410156 4.695312 -17.515625 4.90625 -17.515625 L 7.953125 -17.515625 C 8.148438 -17.515625 8.269531 -17.410156 8.3125 -17.203125 L 11.953125 -0.375 C 11.992188 -0.125 11.890625 0 11.640625 0 Z M 7.8125 -6.046875 L 6.40625 -13.6875 L 5.015625 -6.046875 Z M 7.8125 -6.046875 "/></g></g></g><g fill="#5bafeb" fill-opacity="1"><g transform="translate(152.147522, 23.133078)"><g><path d="M 4.078125 -2.890625 L 4.078125 -17.15625 C 4.078125 -17.394531 3.957031 -17.515625 3.71875 -17.515625 L 1.4375 -17.515625 C 1.207031 -17.515625 1.09375 -17.394531 1.09375 -17.15625 L 1.09375 -0.34375 C 1.09375 -0.113281 1.207031 0 1.4375 0 L 9.28125 0 C 9.507812 0 9.625 -0.113281 9.625 -0.34375 L 9.625 -2.546875 C 9.625 -2.773438 9.507812 -2.890625 9.28125 -2.890625 Z M 4.078125 -2.890625 "/></g></g></g></svg>